<svg xmlns="http://www.w3.org/2000/svg" viewBox="0 0 976 1007.75"><defs><style>.cls-1{fill:#b0c4de;}.cls-2{font-size:50px;font-family:Montserrat-Regular, Montserrat;}.cls-3{fill:azure;}</style></defs><g id="base"><circle class="cls-1" cx="488" cy="488" r="488"/><text class="cls-2" transform="translate(91.68 686.62) rotate(61.31)">S</text><text class="cls-2" transform="translate(109.68 719.02) rotate(56.58)">e</text><text class="cls-2" transform="translate(129.86 749.14) rotate(52.05)">c</text><text class="cls-2" transform="translate(150.53 775.17) rotate(48.35)">r</text><text class="cls-2" transform="translate(166.78 793.49) rotate(44.48)">e</text><text class="cls-2" transform="translate(192.43 818.21) rotate(40.53)">t</text><text class="cls-2" transform="translate(211.85 834.8) rotate(36.68)">a</text><text class="cls-2" transform="translate(239.2 854.79) rotate(32.9)">r</text><text class="cls-2" transform="matrix(0.86, 0.5, -0.5, 0.86, 258.71, 867.23)">i</text><text class="cls-2" transform="translate(274.02 876.3) rotate(26.95)">a</text><text class="cls-2" transform="translate(303.93 891.12) rotate(23.62)"> </text><text class="cls-2" transform="matrix(0.94, 0.34, -0.34, 0.94, 320.45, 898.54)">d</text><text class="cls-2" transform="translate(357.55 911.69) rotate(15.05)">e</text><text class="cls-2" transform="translate(391.51 920.43) rotate(11.65)"> </text><text class="cls-2" transform="translate(409.21 924.28) rotate(7.99)">S</text><text class="cls-2" transform="matrix(1, 0.06, -0.06, 1, 445.62, 929.25)">e</text><text class="cls-2" transform="translate(482.16 931.32) rotate(-1.3)">g</text><text class="cls-2" transform="matrix(0.99, -0.11, 0.11, 0.99, 520.69, 930.18)">u</text><text class="cls-2" transform="translate(557.51 925.74) rotate(-10.3)">r</text><text class="cls-2" transform="translate(580.26 921.45) rotate(-12.92)">i</text><text class="cls-2" transform="translate(597.93 917.58) rotate(-16.56)">d</text><text class="cls-2" transform="translate(635.47 906.08) rotate(-21.38)">a</text><text class="cls-2" transform="matrix(0.9, -0.44, 0.44, 0.9, 668.01, 893.18)">d</text><text class="cls-2" transform="translate(701.85 876.05) rotate(-29.78)"> </text><text class="cls-2" transform="matrix(0.83, -0.55, 0.55, 0.83, 717.87, 867.15)">C</text><text class="cls-2" transform="matrix(0.79, -0.61, 0.61, 0.79, 752.05, 843.77)">i</text><text class="cls-2" transform="translate(766.4 832.97) rotate(-40.97)">u</text><text class="cls-2" transform="matrix(0.7, -0.72, 0.72, 0.7, 795.06, 807.79)">d</text><text class="cls-2" transform="translate(822.09 779.36) rotate(-50.76)">a</text><text class="cls-2" transform="matrix(0.57, -0.82, 0.82, 0.57, 844.13, 752.16)">d</text><text class="cls-2" transform="translate(866.05 719.59) rotate(-60.4)">a</text><text class="cls-2" transform="translate(883.16 689.14) rotate(-65.14)">n</text><text class="cls-2" transform="translate(898.82 654.66) rotate(-69.87)">a</text><circle class="cls-3" cx="488" cy="488" r="382"/></g><g id="y"><path class="cls-1" d="M762,736.28,813.46,802h91.08l173.94-221.54-25.23-36s-16-8.88-28.42,5.33S886.28,727.4,886.28,727.4s-39.07,19.54-24.86-23.09l32-40.86s1.71-10.66-1.85-16-32-40.85-32-40.85L762,731.16" transform="translate(-472 -52)"/><path class="cls-1" d="M1101.21,553.32l95.92-126.11-48-64.38s-12.43-6.67-19.54-6.67h-65.86s-15.84,10.65-21.17,17.76S882.16,580.46,882.16,580.46l27.22,35s9.52,8.88,20.74,0l144.45-182.95s39.08-23.1,26.64,21.31l-33.75,42.63s-3.55,8.88,0,14.21S1101.21,553.32,1101.21,553.32Z" transform="translate(-472 -52)"/><path class="cls-1" d="M859.64,553.32l39.08-51.51-39.08-51.16s-11.79-31.54,22.52-22.16l38.05,48.59,38-50.34L908,363.69s-8.75-9.31-18.77-7.53-67.36,0-67.36,0S813.46,365,811.68,365,762,425.93,762,425.93Z" transform="translate(-472 -52)"/><path class="cls-1" d="M762,540.89A39.08,39.08,0,1,0,801,580,39.07,39.07,0,0,0,762,540.89Zm0,61.28a22.21,22.21,0,1,1,22.2-22.2A22.2,22.2,0,0,1,762,602.17Z" transform="translate(-472 -52)"/><path class="cls-1" d="M980.43,278a39.08,39.08,0,1,0,39.08,39.08A39.08,39.08,0,0,0,980.43,278Zm0,61.28a22.21,22.21,0,1,1,22.2-22.2A22.2,22.2,0,0,1,980.43,339.28Z" transform="translate(-472 -52)"/><path class="cls-1" d="M1127.86,603.06a39.08,39.08,0,1,0,39.08,39.08A39.08,39.08,0,0,0,1127.86,603.06Zm0,61.28a22.21,22.21,0,1,1,22.2-22.2A22.21,22.21,0,0,1,1127.86,664.34Z" transform="translate(-472 -52)"/></g></svg>